/* XPM */
static char *magick[] = {
/* columns rows colors chars-per-pixel */
"32 32 11 1",
"  c black",
". c #191919",
"X c gray20",
"o c #00007f",
"O c #4c4c4c",
"+ c #666667",
"@ c gray50",
"# c blue",
"$ c gray60",
"% c #b2b2b2",
"& c None",
/* pixels */
"&&&& &&& &&&&&&&&&&&&&& &&&&&&&&",
"&& &&XOX&&&&&&&&&&&  XO&   &&&&&",
"&& &+@X$O& &&&&&   &.+++&&&&&&&&",
"&&& @ &.+&.&&&&&&&&+@O X+++.   &",
"& &+O& .+& &&&&&..+@  &&+OOX&&&&",
"& &@.  @O& &&&& @++ &&  &&X$XXX.",
"& &X@&&+&&&&&&&.+&&&&&&&  &X$++X",
"&& &.+++ &&&&&  XO  &&&&&& &. O.",
"&&& &.  &&&&&&& &XX& &&&&&& & O.",
"&&&&&&&&&&&&&&&  +O& &&&&&&  OO&",
"&&&&&&&&&&&&&& &.@.  &&&&&& &XO ",
"&&&&&&&&&&&&&& &XO& &&&&&  .+@X&",
"&&&&&&&&&& .&& &.$.&.&&&&&&&+  &",
"&&&&&&&&& &&&&&.&XO& &&&.XXO+& &",
"&&&&&&&& &o#&&& &OX&   &.@OXX& &",
"&&&&&&&  X$$ && &.$.&&& .O&&&&&&",
"&&&&&&& &#o@.&&&  O++X &.+   &&&",
"&&&&&& &O$X#.&&&&&&&O@+XOX  &&&&",
"&&&&& &O$o&@.&&&&&  & XOX& &&&&&",
"&&&&  &#.&.#.&&&&&&& &&&& &&&&&&",
"&&&   @$& &#.&&&&&&&&    &&&&&&&",
"&&&..##.. &$ &&&&&&&&&&&.  &&&&&",
"&& &o@.   &#.&&&&&&&&& &&&&&&&&&",
"&&& %o &&.&$.&&&&&&&& &.++X& &&&",
"  .#$&&.o&&#.&&&&&&& & ++.@.  &&",
".&+#&oo$$o @.&&&&&&   $.&&&+.&&&",
" X$+$#o+o@&$.&&&&&& &O+   &O &&&",
"&o#+o.&&o$.@ &&&&&& &XX & O$ &&&",
"&& &&& . o@#.&&&&&&&  O@.X$.& &&",
"&&&   &  X#% &&&&&&&&&& OO.& &&&",
"&&&&&&&& &#$ &&&&&&&&& & .& &&&&",
"&&&&&&&&  ..&&&&&&&&&&&&&& &&&&&"
};
