/* XPM */
static char *xsoldier[] = {
/* columns rows colors chars-per-pixel */
"32 32 16 1",
"  c black",
". c #191919",
"X c gray20",
"o c #00007f",
"O c #007f7f",
"+ c #7f0000",
"@ c #7f007f",
"# c #4c4c4c",
"$ c #666667",
"% c gray50",
"& c blue",
"* c cyan",
"= c red",
"- c gray60",
"; c #b2b2b2",
": c None",
/* pixels */
"$.:  : :::::::::::::::::: :  :O$",
"$Oo:  : :::::::::::::::: :  :O-$",
"%oOO:. : :::::::::::::: :  :OO&$",
"%oO&X:  : :::::::::::: :  :O&&%$",
"$o&OOO:  : :::::::::: :  :O&OOO%",
"$OOO&Oo:. :  :    :  :  :oOO*&&$",
"XoO&OOOo:  ::  ::  ::  :oO&*O&O$",
". oOo&OOo:   :....:   :O*&OO&O.X",
"   XO&OOOo: :X-$$X : :OOO&O&O.:.",
"  :.oOO&O&O::#;#$X.::O&&&O&OO:  ",
" : :.oOOO&Oo:#=+=+ :XO&OO*O.:   ",
": : :.o&OOoOO===+++o*&O*O&o:  : ",
":: : :.O&OOoO==+==+O&O&&Oo:  : :",
"::: : :.oOO&&==++++&O*OOo:  : ::",
":::: : :oOOOO===+=#OO&Oo:. : :::",
":::: :  :X&OO=@@@@+OO&O   : ::::",
"::::: :  :oO#@&**&$OOO.  : :::::",
"::::: : :oOOO@***O@O&Oo: : :::::",
":::: : :.OO&o=@$$@@OOoO.: : ::::",
"::: :  :O&O&O==+=++oO&O& : : :::",
":: :  :OOO&*&$==+=oOoOoOO.  : ::",
" :   :O&&O&OOX=+++.OO&OOOo:   : ",
"::  :O&O*OOO.:+==+:.OO&&oOO:  ::",
" :..O&OO&&o.:  ++. :.oOOO&Oo. : ",
" :X$O&O*Oo:  : .. : : oOO&OO%.: ",
" :.$&O&o.:  ::    ::  :.OO&O%.: ",
" :.#&OO.:  : ::  :: : .:oOoO$.: ",
" :.$OO   :  :::::::: :  : O&O.: ",
" :.#o:  : ::::::::::: :  :.o%.: ",
" : X:  : :::::::::::::  :   #.: ",
" ::   : :::::::::::::::: : :..: ",
"::   :::::::::::::::::::: :   : "
};
