/* XPM */
static char *xgalaga-icon[] = {
/* columns rows colors chars-per-pixel */
"32 32 17 1",
"  c None",
". c #191919",
"X c #00007F",
"o c #7F0000",
"O c #7F7F00",
"+ c #4C4C4C",
"@ c gray50",
"# c blue",
"$ c green",
"% c red",
"& c yellow",
"* c gray60",
"= c #B2B2B2",
"- c gray80",
"; c gray90",
": c gray100",
"> c None",
/* pixels */
"                 O-O            ",
"                 %o&            ",
"        :       &O  O           ",
"                                ",
"                          $     ",
"                                ",
"                                ",
"  .oO  O                        ",
"    &%OO.                       ",
"    O;o                         ",
"   OOo%                         ",
"  .O  O&       .                ",
"              .o%o.             ",
"              oOO%o             ",
"             .%%XOO.            ",
"             oOo%o%o            ",
"               o;o.             ",
"           @   @;@   @          ",
"          +;+ .@-@  +;+      .  ",
"          @;@ .@;*  @;@     OO  ",
"          @;@@ @;@.@@-@   Oo%&  ",
"          @;@--=;===@;@   .O-O  ",
"      %   @;=@@@-*@@=-@    %O%O ",
"          @;@@+@-@+@@;@   &Oo   ",
"          @;@. *-*  @-*         ",
"          +*+  +;+  +*+         ",
"          X#X   @   X#X         ",
"          X#X       X#X         ",
"          X#X       X#X         ",
"          XXX       XXX         ",
"                                ",
"                                "
};
