/* XPM */
static char * circuslinux_icon_xpm[] = {
"32 32 14 1",
" 	c None",
".	c #000000",
"+	c #FFFFFF",
"@	c #CCCCCC",
"#	c #B2B2B2",
"$	c #E5E5E5",
"%	c #FF0000",
"&	c #7F0000",
"*	c #191919",
"=	c #333333",
"-	c #4C4C4C",
";	c #999999",
">	c #666667",
",	c #7F7F7F",
"................................",
"................................",
"............+++@#...............",
"...........+$$$$@#....%%%%......",
"..........+$$$$$$@#.%%%%%.......",
".........+$$$$$@.$@#.%%&%%......",
".........+$$$$$.@.$.#.%%%%%.....",
"............@$$$$$$$@#.&%&%%....",
".......%%%%%.$$$$#$$$##.%%%%%...",
".*..%%%%%%%.@$$$$.$$$.#.%&%..*.*",
"*.%%%%&%&%%.$$$$...$....%%.*****",
"=*.%%%%&%%%.$$$$$.$$$.#...=*=*=*",
"*=*.%%&%%%%.$$$$$#$$#...*=*=*=*=",
"===.%%%%...@$$$$$$$#*%%%.=======",
"=-=.%&%.+$$$$$%@$$$.%%%%%.=-=-=-",
"---.%%%.$.@$$%.%$$$*%%%%%...----",
"---.%%%.$@@$$%.&;$$.%%%%%.@#.---",
">->-.%&%..$$$$&.%@$#*%%%.#$#.>->",
">>>>>.%&%.$$$$;%.%@$#.*.#%@#.>>>",
">>>>>>.%%.@$$$$;&.&$$$$%&.%.>>>>",
",>,>,>,.%.#@$$$$@%.&%%&..%.,>,>,",
",,,,,,,,.+.#@$$$$#%....%%.,,,,,,",
",,,,,,,,.+@.#$$$$@#%%%%..,,,,,,,",
";,;,;,;,.+$$.$$$@#@@@#.;,;,;,;,;",
";;;;;;;;.+$$$@$@#.###.;;;;;;;;;;",
";;;;;;;;.+$$$$$#.;...;;;;;;;;;;;",
"#;#;#;#;.+$$$@#.;#;#;#;#;#;#;#;#",
"########.@$$@#.;################",
"########.#@$@$#.################",
"#@#@#@#@#.####.@#@#@#@#@#@#@#@#@",
"@@@@@@@@@@....@@@@@@@@@@@@@@@@@@",
"@@@@@@@@@@@@@@@@@@@@@@@@@@@@@@@@"};
