<svg xmlns="http://www.w3.org/2000/svg" fill="#9aca3c" viewBox="0 0 32 32">
  <path d="M12.4719 13.9367V8.6766c0-1.9408 1.5752-3.516 3.516-3.516s3.516 1.5752 3.516 3.516v5.26c1.7018-1.1391 2.813-3.0658 2.813-5.26 0-3.502-2.827-6.329-6.329-6.329s-6.329 2.827-6.329 6.329c0 2.194 1.1112 4.1209 2.813 5.26zm13.8391 6.5117-6.3851-3.1785c-.2391-.0984-.4922-.1548-.7594-.1548h-1.069V8.6766c0-1.1673-.9423-2.1096-2.1096-2.1096s-2.1096.9424-2.1096 2.1096v15.105l-4.824-1.0126c-.1126-.014-.211-.0423-.3376-.0423-.436 0-.8298.1829-1.111.4642l-1.1111 1.1252 6.9477 6.9477c.3798.3797.9142.6188 1.4908.6188h9.5497c1.0548 0 1.8705-.7735 2.0253-1.8003l1.0547-7.4118c.014-.0985.0282-.1968.0282-.2812 0-.872-.5346-1.6315-1.28-1.9408v-.0001z" clip-path="url(#b)"/>
</svg>
