/* XPM */
static char *bumprace[] = {
/* columns rows colors chars-per-pixel */
"32 32 96 2",
"   c #020204",
".  c #010508",
"X  c #010A0E",
"o  c #0C0606",
"O  c #0E080A",
"+  c #010D12",
"@  c #01151D",
"#  c #0E1013",
"$  c #120706",
"%  c #140807",
"&  c #140909",
"*  c #1B0C0C",
"=  c #1B1113",
"-  c #011924",
";  c #011E2A",
":  c #1B1E24",
">  c #032A3B",
",  c #162733",
"<  c #220E0E",
"1  c #290305",
"2  c #251111",
"3  c #23191B",
"4  c #2C1313",
"5  c #331615",
"6  c #361816",
"7  c #361B1B",
"8  c #3B1B19",
"9  c #322124",
"0  c #013145",
"q  c #013449",
"w  c #0E384B",
"e  c #023E56",
"r  c #0A3C53",
"t  c #283543",
"y  c #2A3E50",
"u  c #3F3E4A",
"i  c #01445F",
"p  c #1F4155",
"a  c #014662",
"s  c #054965",
"d  c #06506E",
"f  c #025475",
"g  c #065A7C",
"h  c #38445D",
"j  c #421E1C",
"k  c #48201F",
"l  c #452120",
"z  c #4C2221",
"x  c #4E2A2A",
"c  c #542624",
"v  c #562825",
"b  c #552D2B",
"n  c #582726",
"m  c #5B2927",
"M  c #5E2B29",
"N  c #55313D",
"B  c #680708",
"V  c #621B1B",
"C  c #7D0608",
"Z  c #662827",
"A  c #642D2B",
"S  c #6C2827",
"D  c #6C2E2B",
"F  c #6D2F30",
"G  c #6B312F",
"H  c #6C3331",
"J  c #693938",
"K  c #792F2C",
"L  c #7E322F",
"P  c #713633",
"I  c #753936",
"U  c #773D3A",
"Y  c #7B3E3C",
"T  c #7B403E",
"R  c #065F84",
"E  c #026187",
"W  c #267B9C",
"Q  c #2B7E9F",
"!  c #2180A6",
"~  c #2986AA",
"^  c #8B2221",
"/  c #893230",
"(  c #903735",
")  c #BF0E13",
"_  c #B51414",
"`  c #BC1313",
"'  c #844543",
"]  c #8A4D4A",
"[  c #C00E0F",
"{  c #C71313",
"}  c #CF1515",
"|  c #D40406",
" . c #DF0507",
".. c #E30305",
"X. c #ED0204",
"o. c #F40104",
/* pixels */
"                                                                ",
"                                                                ",
"                                                                ",
"                                                                ",
"                                                                ",
"                                                                ",
"                                                                ",
"                                                                ",
"                            o                                   ",
"                      o & * * * * % $ $ o                       ",
"                  . * 4 4 2 = # O o $ $ o o o                   ",
"                & 5 6 6 5 : > > ; +     $ $ $ o                 ",
"              & 7 j j j 9 r a e 0 ; .   o $ $ $ $               ",
"              6 z z z z t f f f i > @   o % % $ $ o             ",
"            * c c c c n y R ~ Q s 0 ;   o * & % % %             ",
"            7 M M Z M S N R ! W s q ; . & < < * * * o           ",
"          . k Z A S ^ [ [ h g f i 0 @ O 2 4 2 < * * &           ",
"          o v G ^ ` ...._ D h p w , 3 7 6 4 4 < < < &           ",
"            V `  .X...` L G G M x z k j 6 5 4 4 2 < &           ",
"            B X.X.X.{ / P H A A v c k k j 6 5 4 4 < $           ",
"            1 | o.} / I P H G A m c k k j 8 6 5 4 2             ",
"              C } ( Y T T P H A m v c k j 8 6 5 4 %             ",
"              $ Z ' ] ' T I H A m v k k j j 6 5 *               ",
"                % m ] ] ' T H A m v c k k j 5 &                 ",
"                  o 7 J T T H A M v c k 8 2                     ",
"                      O 3 8 k k k 6 4 * o                       ",
"                              o                                 ",
"                                                                ",
"                                                                ",
"                                                                ",
"                                                                ",
"                                                                "
};
